PathFileType	4	(X/Y/Z)	15_2_39_p0_0-509_filt_butterworth.trc
DataRate	CameraRate	NumFrames	NumMarkers	Units	OrigDataRate	OrigDataStartFrame	OrigNumFrames
59.0	59.0	6	27	m	59.0	381	509
Frame#	Time	RHip			RKnee			RAnkle			RBigToe			RSmallToe			RHeel			LHip			LKnee			LAnkle			LBigToe			LSmallToe			LHeel			Neck			Head			Nose			RShoulder			RElbow			RWrist			RThumb			RIndex			RPinky			LShoulder			LElbow			LWrist			LThumb			LIndex			LPinky			
		X1	Y1	Z1	X2	Y2	Z2	X3	Y3	Z3	X4	Y4	Z4	X5	Y5	Z5	X6	Y6	Z6	X7	Y7	Z7	X8	Y8	Z8	X9	Y9	Z9	X10	Y10	Z10	X11	Y11	Z11	X12	Y12	Z12	X13	Y13	Z13	X14	Y14	Z14	X15	Y15	Z15	X16	Y16	Z16	X17	Y17	Z17	X18	Y18	Z18	X19	Y19	Z19	X20	Y20	Z20	X21	Y21	Z21	X22	Y22	Z22	X23	Y23	Z23	X24	Y24	Z24	X25	Y25	Z25	X26	Y26	Z26	X27	Y27	Z27	
381	6.457627118644068	0.24931627546178722	0.9386552785091485	0.22319476618913703	0.25953234208767706	0.5087196665360602	0.1908948411328712	0.27249177621740034	0.12614121905871295	0.1985830313206202	0.2414982263553544	0.0991468448419239	0.016590796486942838	0.3119508670151977	0.11493947128751218	0.034289192098495576	0.25775179379514584	0.0513743928813956	0.27562802244878604	0.01503568640264765	0.9449498543885612	0.22663195265825398	0.03226754448570373	0.500721646172765	0.189334879284768	0.05094477523083045	0.11269375943627842	0.21970028442238368	0.06226540856753714	0.09384901335318026	0.04501241685233661	0.013432068653550767	0.07763022780962127	0.08148109794951325	0.06943259015468299	0.07051215985765504	0.2569930374202469	0.14973214173980606	1.5081513803310884	0.24187471620458956	0.21654078092296358	1.73193095824217	0.22140250941387324	0.1835822363011443	1.624775745241912	0.14749199692485745	0.2915954079915801	1.4158920893825258	0.2775270614671952	0.3255743919868108	1.1726077134904873	0.24718379648087976	0.19146330585011823	1.1009327732438927	0.0415685453909139	0.08498172363187731	1.0780397156958288	-0.03109005853153865	0.07566308391898632	1.061652148711943	-0.017846151802315816	0.11742379376216178	1.0278883702297255	0.0036466554739968404	-0.020464259259515526	1.4679785641342726	0.27749415409849537	-0.08966001206353585	1.280434642520123	0.1900525385383762	0.04384198900738985	1.1546841533885324	0.0033042438343389158	0.11426180421584514	1.1072273219663793	-0.04821739563594052	0.11911445036917517	1.077236995940578	-0.04421040515085477	0.08943908224226485	1.050245584355194	0.012185286469504647	
382	6.47457627118644	0.24964728709588246	0.9385012125282303	0.2230714367713776	0.2592717174055977	0.5092202259122536	0.18995815858546838	0.2723197278210539	0.12658083108322518	0.19891949148470206	0.2422699237270532	0.09848913571536073	0.017230699059559804	0.31295185828525945	0.11541251833472294	0.034600613605765204	0.257431644528376	0.05197070272913014	0.2748790966371452	0.015269695995571436	0.9448202126985707	0.2261282145016995	0.03223493240190084	0.5005315949008556	0.18936043371612343	0.050904351039835614	0.11291717291078016	0.2198014601953257	0.06238902389340153	0.09279661338511358	0.04544771474805416	0.012911819907688641	0.07744733001943511	0.08165216514577212	0.06906532024546869	0.06972691363196643	0.2581664303738211	0.1496979858533021	1.5100585010051764	0.2421140038789232	0.2142877327554521	1.7330175650317532	0.22418164825247922	0.18333855043764333	1.6261793159728193	0.14774472981924655	0.29134649000297663	1.418289183483204	0.2778849060143582	0.32592236972237354	1.1748845394707848	0.25010650539919266	0.19478185845259754	1.0998066296016689	0.04696613794740215	0.08560526370085476	1.0784330193406173	-0.02674568919401825	0.07848894764721474	1.0620497066445247	-0.015030526313843745	0.12649549160608783	1.0282244509419924	-0.001806091634215426	-0.020320259590545744	1.4686565977288766	0.2765636272483086	-0.09023578105498731	1.2809318941447032	0.18869302057203752	0.045057033287407025	1.1571381617163823	0.004769727758440312	0.11634552827553804	1.1080667691743606	-0.03675911367579808	0.12361154436344578	1.077438316271016	-0.035038463179082435	0.09346993550183277	1.0512111849264019	0.019912733527751858	
383	6.491525423728813	0.25020317387220226	0.9385563833529482	0.2219719464975798	0.25894676918332826	0.5100888485202734	0.18882719924452857	0.2722616387090774	0.1272547885451081	0.19881079671361354	0.24325439860181214	0.09666460285858865	0.019286291060278675	0.31362813675524137	0.11567256358152972	0.034910589167522495	0.2570662129236985	0.052644324979215874	0.27402337178309666	0.01565876620649249	0.9446597938137097	0.22534300930428502	0.03216026966564511	0.5006309507400697	0.1891682524290842	0.050862850169348814	0.11320475129587021	0.21992843656529865	0.061860839362655025	0.09248775569288839	0.04524958041429888	0.012533568855472474	0.07747216983916547	0.08172401968518449	0.06871281704789543	0.06885546186639269	0.2596190825446348	0.14943452068416319	1.5117000986077689	0.24227589695181617	0.21164029546591534	1.734557639536023	0.22625243440411114	0.18233339231784496	1.6277448116192987	0.14788140181463116	0.2911744613069588	1.4200911676875052	0.27824162456996027	0.32663748778441537	1.1758117932839924	0.2520450952188004	0.19793934840862723	1.0979786527880213	0.05112783070273047	0.08692148984817806	1.0778013071854953	-0.02299073697883762	0.0816622893115703	1.0619413838849991	-0.013426241457290239	0.13521273412836288	1.027240402385869	-0.006500222212503334	-0.02006447942618005	1.4689333387118753	0.274947910856538	-0.09251128829160818	1.2813240923751095	0.18612647600518817	0.04663140577864128	1.1578863813699245	0.008580005861371837	0.11977079320795	1.1072194526575365	-0.023844021232321364	0.12993708364874684	1.076650744184636	-0.025476821372587874	0.0978582610939379	1.0506248952124875	0.028310346843638312	
384	6.508474576271187	0.2508702475300999	0.9388159005922023	0.220021777065614	0.25858468127913237	0.5111148668165066	0.18762442172299992	0.2722311634295614	0.12793908111347216	0.19833854908475418	0.24431663965914202	0.09374896785916735	0.022609361244424003	0.3140431329333433	0.11539643871400242	0.03531867284677293	0.2566364291836923	0.053417795791928374	0.2730602290620043	0.016154708460191996	0.9445055560115655	0.2243091222171549	0.032059713257596475	0.5008433565737446	0.18876863675819724	0.05081848099608495	0.113564301573363	0.22007369317531372	0.06090798969712047	0.09323389050806603	0.04412359860421714	0.012343543415701912	0.07771531995928568	0.08134419613847725	0.06838925116332156	0.06814730000890647	0.26120188973228264	0.14869390637351002	1.5129661852994651	0.24234436561372164	0.2085723216385667	1.7365056816201123	0.22700402408878798	0.18033260535844753	1.6292842175384248	0.14785616602359788	0.29119957867815566	1.4211155415247458	0.2786553160015709	0.327943022401897	1.1753948766280755	0.25204495632653773	0.20074674570481688	1.09571704407611	0.054071998700793406	0.08904849466779172	1.0764065318535967	-0.019646627054221003	0.08492743084492124	1.0609973469905172	-0.012591383954516824	0.14251064782412004	1.0250491466143228	-0.009257058177260816	-0.019750189819029356	1.4686728760917387	0.2728641455432155	-0.09595536986416951	1.2816267053916492	0.18265113464079855	0.0484449998391517	1.1570321505697918	0.013721329408167726	0.12414614806444588	1.105360914619382	-0.012353814609903965	0.1371585498647196	1.0753038541066116	-0.01797200764361989	0.1019162509158803	1.0485818915264917	0.03620629094642677	
385	6.52542372881356	0.25152122789475123	0.9392913778123801	0.21764223894925389	0.25823592943020124	0.5120117559726797	0.18648758613724817	0.2721781598625837	0.12847081754992262	0.19773419062512085	0.24531051947941035	0.09008603643692373	0.026774343190153493	0.3142929812913718	0.11469526494849877	0.03580831771281104	0.2561301007896845	0.054290956868677645	0.2719973012931926	0.01671084015221269	0.9444167354227636	0.22307413012575183	0.03195266520005623	0.500901859845965	0.18819610858042646	0.050776079711219245	0.11393166688552836	0.22021496425756396	0.05981531756558686	0.09481506652467732	0.042179540280365205	0.012418598238280747	0.07819085869619659	0.08027209703076889	0.0681200226652913	0.06768031120502607	0.2626729969799745	0.14736814576777693	1.513816834843333	0.24235569837135368	0.20501799445537267	1.7386949450692333	0.22601723767483728	0.17734095274664627	1.6306105607754713	0.14761541629164576	0.2914333309694661	1.4213981383842287	0.2790137991397759	0.32978478035617725	1.1740217425324266	0.2499035282186347	0.20313281792070206	1.093161525835097	0.05584126803134665	0.0918355754740599	1.0743667310231961	-0.016408432131239617	0.08804570485595797	1.058986985111017	-0.011669466757375346	0.14747174073058988	1.0213194122930842	-0.008446300803641171	-0.019428790701952497	1.4678960857014653	0.2705882737531055	-0.09969472442384404	1.2817432938891151	0.17877970745675087	0.05018230652327784	1.154894108833577	0.018904671972379522	0.12892394982760333	1.1027573174714564	-0.0036900187936453888	0.14427313710076672	1.0733291176979842	-0.01333283063252702	0.10511989476167774	1.0452405300962553	0.04311479421083417	
386	6.5423728813559325	0.2521066579548319	0.9400363997936936	0.21522370295343085	0.2579609724844971	0.5126083865642982	0.1854904374561823	0.2720872526103922	0.12883310630110784	0.19727774274206053	0.24603097659271478	0.08660906182885193	0.030662286330603927	0.3144238953810403	0.11377757416354915	0.03628555964039327	0.2555650381042521	0.05523051592267764	0.27086100269541286	0.017291324277656464	0.944486095209381	0.22165126846966493	0.03184414631790176	0.5006928605450344	0.18749757271155812	0.050742172818116056	0.11423313309442179	0.22033083849673635	0.05887903636732439	0.09683986800461598	0.03974797244297805	0.012818443909794468	0.07901023956690352	0.07854354682567805	0.0679289637433559	0.06729488151147264	0.26384590150031084	0.14552157533148025	1.514338270182733	0.24236725238097165	0.20083030788882877	1.7408475540134263	0.22338424465995388	0.17352485270534035	1.6317221209681083	0.14713556885991425	0.29168425171533435	1.4212152676609326	0.27902792406045074	0.3318720622335195	1.1721555087819133	0.24658977843444588	0.20512529982210895	1.0903598375947283	0.05661847828034405	0.09508672038112433	1.071940445577358	-0.014154646325661172	0.09096145798415736	1.05610131798739	-0.010493092823027406	0.14966133501822199	1.0158487512452685	-0.0028943070847112368	-0.01917056936767218	1.4668061144194635	0.26841853517098513	-0.10282489226638925	1.281551914214093	0.17477814668890265	0.05123404999089326	1.1516904259576513	0.023190676788907294	0.13345034931002772	1.0993805200171562	0.001836626123593088	0.15033168391221408	1.070294903982396	-0.01021165012405316	0.10728465293064565	1.0406127312290436	0.04932736891733916	
